<mxfile host="app.diagrams.net" modified="2024-04-02T06:27:56.633Z" agent="Mozilla/5.0 (Windows NT 10.0; Win64; x64) AppleWebKit/537.36 (KHTML, like Gecko) Chrome/123.0.0.0 Safari/537.36" etag="oPvK0H2PLldCRO8p6FlS" version="24.2.0" type="device">
  <diagram name="Page-1" id="c4NMXA414AX_DY4lxs--">
    <mxGraphModel dx="1050" dy="522" grid="1" gridSize="10" guides="1" tooltips="1" connect="1" arrows="1" fold="1" page="1" pageScale="1" pageWidth="850" pageHeight="1100" math="0" shadow="0">
      <root>
        <mxCell id="0" />
        <mxCell id="1" parent="0" />
        <mxCell id="Db2Mbbl31r1HchHurynJ-2" value="" style="rounded=1;whiteSpace=wrap;html=1;strokeColor=#a19797;" parent="1" vertex="1">
          <mxGeometry x="110" y="210" width="270" height="190" as="geometry" />
        </mxCell>
        <mxCell id="Db2Mbbl31r1HchHurynJ-3" value="" style="rounded=1;whiteSpace=wrap;html=1;strokeColor=#a19797;" parent="1" vertex="1">
          <mxGeometry x="440" y="330.5" width="280" height="200" as="geometry" />
        </mxCell>
        <mxCell id="Db2Mbbl31r1HchHurynJ-4" value="" style="rounded=1;whiteSpace=wrap;html=1;strokeColor=#aea3a3;" parent="1" vertex="1">
          <mxGeometry x="430" y="40" width="280" height="200" as="geometry" />
        </mxCell>
        <mxCell id="Db2Mbbl31r1HchHurynJ-5" value="&lt;h2&gt;Data Preparation&lt;/h2&gt;" style="text;html=1;align=center;verticalAlign=middle;whiteSpace=wrap;rounded=0;" parent="1" vertex="1">
          <mxGeometry x="110" y="210" width="190" height="30" as="geometry" />
        </mxCell>
        <mxCell id="Db2Mbbl31r1HchHurynJ-6" value="&lt;h2&gt;Generation&lt;/h2&gt;" style="text;html=1;align=center;verticalAlign=middle;whiteSpace=wrap;rounded=0;" parent="1" vertex="1">
          <mxGeometry x="450" y="330.5" width="130" height="30" as="geometry" />
        </mxCell>
        <mxCell id="Db2Mbbl31r1HchHurynJ-7" value="&lt;h2&gt;Retrieval&lt;/h2&gt;" style="text;html=1;align=center;verticalAlign=middle;whiteSpace=wrap;rounded=0;" parent="1" vertex="1">
          <mxGeometry x="440" y="40" width="120" height="30" as="geometry" />
        </mxCell>
        <mxCell id="Db2Mbbl31r1HchHurynJ-8" value="" style="sketch=0;outlineConnect=0;fontColor=#232F3E;gradientColor=none;fillColor=#7AA116;strokeColor=none;dashed=0;verticalLabelPosition=bottom;verticalAlign=top;align=center;html=1;fontSize=12;fontStyle=0;aspect=fixed;pointerEvents=1;shape=mxgraph.aws4.iot_analytics_data_store;" parent="1" vertex="1">
          <mxGeometry x="479.23" y="85" width="41.54" height="60" as="geometry" />
        </mxCell>
        <mxCell id="Db2Mbbl31r1HchHurynJ-10" value="&lt;font face=&quot;Georgia&quot;&gt;Raw documents&lt;/font&gt;" style="text;html=1;align=center;verticalAlign=middle;whiteSpace=wrap;rounded=0;" parent="1" vertex="1">
          <mxGeometry x="130" y="370" width="90" height="30" as="geometry" />
        </mxCell>
        <mxCell id="Db2Mbbl31r1HchHurynJ-11" value="" style="outlineConnect=0;dashed=0;verticalLabelPosition=bottom;verticalAlign=top;align=center;html=1;shape=mxgraph.aws3.documents;fillColor=#759C3E;gradientColor=none;" parent="1" vertex="1">
          <mxGeometry x="130" y="309.5" width="60" height="60.5" as="geometry" />
        </mxCell>
        <mxCell id="Db2Mbbl31r1HchHurynJ-13" value="&lt;font face=&quot;Georgia&quot;&gt;Data chunks&lt;/font&gt;" style="text;html=1;align=center;verticalAlign=middle;whiteSpace=wrap;rounded=0;" parent="1" vertex="1">
          <mxGeometry x="249.99" y="324.75" width="80" height="30" as="geometry" />
        </mxCell>
        <mxCell id="Db2Mbbl31r1HchHurynJ-14" value="" style="sketch=0;outlineConnect=0;fontColor=#232F3E;gradientColor=none;fillColor=#7AA116;strokeColor=none;dashed=0;verticalLabelPosition=bottom;verticalAlign=top;align=center;html=1;fontSize=12;fontStyle=0;aspect=fixed;pointerEvents=1;shape=mxgraph.aws4.data_set;" parent="1" vertex="1">
          <mxGeometry x="620" y="140" width="48.46" height="60" as="geometry" />
        </mxCell>
        <mxCell id="Db2Mbbl31r1HchHurynJ-15" value="" style="sketch=0;outlineConnect=0;fontColor=#232F3E;gradientColor=none;fillColor=#7AA116;strokeColor=none;dashed=0;verticalLabelPosition=bottom;verticalAlign=top;align=center;html=1;fontSize=12;fontStyle=0;aspect=fixed;pointerEvents=1;shape=mxgraph.aws4.elastic_block_store_amazon_data_lifecycle_manager;" parent="1" vertex="1">
          <mxGeometry x="255.88" y="95" width="68.21" height="70" as="geometry" />
        </mxCell>
        <mxCell id="Db2Mbbl31r1HchHurynJ-17" value="&lt;font face=&quot;Georgia&quot;&gt;Embedding&lt;/font&gt;" style="text;html=1;align=center;verticalAlign=middle;whiteSpace=wrap;rounded=0;" parent="1" vertex="1">
          <mxGeometry x="259.99" y="160" width="60" height="30" as="geometry" />
        </mxCell>
        <mxCell id="Db2Mbbl31r1HchHurynJ-18" value="" style="sketch=0;outlineConnect=0;fontColor=#232F3E;gradientColor=none;fillColor=#01A88D;strokeColor=none;dashed=0;verticalLabelPosition=bottom;verticalAlign=top;align=center;html=1;fontSize=12;fontStyle=0;aspect=fixed;pointerEvents=1;shape=mxgraph.aws4.sagemaker_model;" parent="1" vertex="1">
          <mxGeometry x="490" y="420" width="78" height="78" as="geometry" />
        </mxCell>
        <mxCell id="Db2Mbbl31r1HchHurynJ-19" value="" style="outlineConnect=0;dashed=0;verticalLabelPosition=bottom;verticalAlign=top;align=center;html=1;shape=mxgraph.aws3.instances_2;fillColor=#759C3E;gradientColor=none;" parent="1" vertex="1">
          <mxGeometry x="257.37" y="260" width="65.25" height="61" as="geometry" />
        </mxCell>
        <mxCell id="Db2Mbbl31r1HchHurynJ-20" value="&lt;font face=&quot;Georgia&quot;&gt;Vector database&lt;/font&gt;" style="text;html=1;align=center;verticalAlign=middle;whiteSpace=wrap;rounded=0;" parent="1" vertex="1">
          <mxGeometry x="455" y="145" width="100" height="30" as="geometry" />
        </mxCell>
        <mxCell id="Db2Mbbl31r1HchHurynJ-21" value="&lt;font face=&quot;Georgia&quot;&gt;Relevant chunks&lt;/font&gt;" style="text;html=1;align=center;verticalAlign=middle;whiteSpace=wrap;rounded=0;" parent="1" vertex="1">
          <mxGeometry x="600" y="200" width="92" height="30" as="geometry" />
        </mxCell>
        <mxCell id="Db2Mbbl31r1HchHurynJ-22" value="" style="sketch=0;outlineConnect=0;fontColor=#232F3E;gradientColor=none;fillColor=#7AA116;strokeColor=none;dashed=0;verticalLabelPosition=bottom;verticalAlign=top;align=center;html=1;fontSize=12;fontStyle=0;aspect=fixed;pointerEvents=1;shape=mxgraph.aws4.non_cached_volume;" parent="1" vertex="1">
          <mxGeometry x="627.61" y="360.5" width="36.77" height="46.26" as="geometry" />
        </mxCell>
        <mxCell id="Db2Mbbl31r1HchHurynJ-23" value="&lt;font face=&quot;Georgia&quot;&gt;Prompt (chunk and question)&lt;/font&gt;" style="text;html=1;align=center;verticalAlign=middle;whiteSpace=wrap;rounded=0;" parent="1" vertex="1">
          <mxGeometry x="600" y="415.5" width="100" height="30" as="geometry" />
        </mxCell>
        <mxCell id="Db2Mbbl31r1HchHurynJ-27" value="&lt;font face=&quot;Georgia&quot;&gt;Query&lt;/font&gt;" style="text;html=1;align=center;verticalAlign=middle;whiteSpace=wrap;rounded=0;" parent="1" vertex="1">
          <mxGeometry x="104.45" y="160" width="60" height="30" as="geometry" />
        </mxCell>
        <mxCell id="Db2Mbbl31r1HchHurynJ-28" value="&lt;font face=&quot;Georgia&quot;&gt;LLM&lt;/font&gt;" style="text;html=1;align=center;verticalAlign=middle;whiteSpace=wrap;rounded=0;" parent="1" vertex="1">
          <mxGeometry x="500" y="498" width="60" height="30" as="geometry" />
        </mxCell>
        <mxCell id="Db2Mbbl31r1HchHurynJ-30" value="" style="sketch=0;outlineConnect=0;fontColor=#232F3E;gradientColor=none;fillColor=#232F3D;strokeColor=none;dashed=0;verticalLabelPosition=bottom;verticalAlign=top;align=center;html=1;fontSize=12;fontStyle=0;aspect=fixed;pointerEvents=1;shape=mxgraph.aws4.question;" parent="1" vertex="1">
          <mxGeometry x="120" y="105" width="28.91" height="55" as="geometry" />
        </mxCell>
        <mxCell id="Db2Mbbl31r1HchHurynJ-31" value="" style="sketch=0;outlineConnect=0;fontColor=#232F3E;gradientColor=none;fillColor=#232F3D;strokeColor=none;dashed=0;verticalLabelPosition=bottom;verticalAlign=top;align=center;html=1;fontSize=12;fontStyle=0;aspect=fixed;pointerEvents=1;shape=mxgraph.aws4.chat;" parent="1" vertex="1">
          <mxGeometry x="334.11" y="448" width="57.35" height="50" as="geometry" />
        </mxCell>
        <mxCell id="Db2Mbbl31r1HchHurynJ-32" value="&lt;font face=&quot;Georgia&quot;&gt;Response&lt;/font&gt;" style="text;html=1;align=center;verticalAlign=middle;whiteSpace=wrap;rounded=0;" parent="1" vertex="1">
          <mxGeometry x="334.11" y="498" width="60" height="30" as="geometry" />
        </mxCell>
        <mxCell id="Db2Mbbl31r1HchHurynJ-34" value="" style="curved=1;endArrow=classic;html=1;rounded=0;" parent="1" edge="1">
          <mxGeometry width="50" height="50" relative="1" as="geometry">
            <mxPoint x="200" y="320" as="sourcePoint" />
            <mxPoint x="240" y="280" as="targetPoint" />
            <Array as="points">
              <mxPoint x="200" y="280" />
            </Array>
          </mxGeometry>
        </mxCell>
        <mxCell id="Db2Mbbl31r1HchHurynJ-35" value="" style="endArrow=classic;html=1;rounded=0;" parent="1" edge="1">
          <mxGeometry width="50" height="50" relative="1" as="geometry">
            <mxPoint x="290.39" y="250" as="sourcePoint" />
            <mxPoint x="290" y="190" as="targetPoint" />
          </mxGeometry>
        </mxCell>
        <mxCell id="Db2Mbbl31r1HchHurynJ-36" value="" style="endArrow=classic;html=1;rounded=0;" parent="1" edge="1">
          <mxGeometry width="50" height="50" relative="1" as="geometry">
            <mxPoint x="170" y="135" as="sourcePoint" />
            <mxPoint x="230" y="135" as="targetPoint" />
          </mxGeometry>
        </mxCell>
        <mxCell id="Db2Mbbl31r1HchHurynJ-38" value="" style="endArrow=classic;html=1;rounded=0;" parent="1" edge="1">
          <mxGeometry width="50" height="50" relative="1" as="geometry">
            <mxPoint x="334.99" y="132" as="sourcePoint" />
            <mxPoint x="455" y="132" as="targetPoint" />
          </mxGeometry>
        </mxCell>
        <mxCell id="Db2Mbbl31r1HchHurynJ-39" value="" style="curved=1;endArrow=classic;html=1;rounded=0;" parent="1" edge="1">
          <mxGeometry width="50" height="50" relative="1" as="geometry">
            <mxPoint x="545" y="105" as="sourcePoint" />
            <mxPoint x="639.11" y="130" as="targetPoint" />
            <Array as="points">
              <mxPoint x="639.11" y="100" />
            </Array>
          </mxGeometry>
        </mxCell>
        <mxCell id="Db2Mbbl31r1HchHurynJ-40" value="" style="endArrow=classic;html=1;rounded=0;" parent="1" edge="1">
          <mxGeometry width="50" height="50" relative="1" as="geometry">
            <mxPoint x="645.5" y="230" as="sourcePoint" />
            <mxPoint x="645.5" y="355.25" as="targetPoint" />
          </mxGeometry>
        </mxCell>
        <mxCell id="Db2Mbbl31r1HchHurynJ-41" value="" style="curved=1;endArrow=classic;html=1;rounded=0;" parent="1" edge="1">
          <mxGeometry width="50" height="50" relative="1" as="geometry">
            <mxPoint x="650" y="458" as="sourcePoint" />
            <mxPoint x="580" y="488" as="targetPoint" />
            <Array as="points">
              <mxPoint x="650" y="488" />
            </Array>
          </mxGeometry>
        </mxCell>
        <mxCell id="Db2Mbbl31r1HchHurynJ-42" value="" style="endArrow=classic;html=1;rounded=0;" parent="1" edge="1">
          <mxGeometry width="50" height="50" relative="1" as="geometry">
            <mxPoint x="479.23" y="472.5" as="sourcePoint" />
            <mxPoint x="399.23" y="472.5" as="targetPoint" />
          </mxGeometry>
        </mxCell>
      </root>
    </mxGraphModel>
  </diagram>
</mxfile>
